<svg xmlns="http://www.w3.org/2000/svg" viewBox="0 0 172.65 42.37"><defs><style>.cls-1{fill:#f29203;}.cls-2{fill:#f6f6f6;opacity:0.23;isolation:isolate;}.cls-3{fill:none;stroke:#78221a;stroke-miterlimit:10;stroke-width:1.47px;}.cls-4{fill:#f7ab59;}.cls-5{fill:#e58505;}.cls-6{fill:#d67909;}.cls-7{fill:#fc951a;}.cls-8{fill:#c66c0a;}.cls-9{fill:#aa570c;}.cls-10{fill:#fcf1e6;}</style></defs><title>amis</title><g id="Calque_2" data-name="Calque 2"><g id="Calque_1-2" data-name="Calque 1"><path id="Tracé_2348" data-name="Tracé 2348" class="cls-1" d="M169.15,30.37H34.55v-18H169.17a3.12,3.12,0,0,1,3.48,2.42V27.93A3.13,3.13,0,0,1,169.15,30.37Z"/><path id="Rectangle_347" data-name="Rectangle 347" class="cls-2" d="M35.71,12.56H169.45a2.86,2.86,0,0,1,3.08,2.37v3.82H35.71Z"/><path id="Tracé_2407" data-name="Tracé 2407" class="cls-1" d="M4.29,27.76V12.9L17.75,5.21l12.9,7.29v15L17.92,35.39Z"/><path id="Tracé_2408" data-name="Tracé 2408" class="cls-3" d="M3.06,28.75V12.51l14.72-8.4,14.1,8V28.44L18,37.09Z"/><path id="Tracé_2409" data-name="Tracé 2409" class="cls-4" d="M17.78,4.11V0l17.9,10.18-3.8,1.9Z"/><path id="Tracé_2410" data-name="Tracé 2410" class="cls-5" d="M31.88,28.44l3.8,2.27V10.18l-3.8,1.9Z"/><path id="Tracé_2411" data-name="Tracé 2411" class="cls-6" d="M18,37.09v3.62l17.71-10-3.8-2.26Z"/><path id="Tracé_2412" data-name="Tracé 2412" class="cls-5" d="M3.06,28.75l-2.75,2L18,40.71V37.09Z"/><path id="Tracé_2413" data-name="Tracé 2413" class="cls-1" d="M3.06,12.51,0,10.73l.31,20,2.76-2Z"/><path id="Tracé_2414" data-name="Tracé 2414" class="cls-7" d="M17.78,0V4.11L3.06,12.51,0,10.73Z"/><path id="Tracé_2415" data-name="Tracé 2415" class="cls-5" d="M4.66,13.4l-1.6-.89V28.75l1.6-.9Z"/><path id="Tracé_2416" data-name="Tracé 2416" class="cls-4" d="M17.91,35.27,18,37.09,3.07,28.75l1.59-.9Z"/><path id="Tracé_2417" data-name="Tracé 2417" class="cls-7" d="M30.28,27.58l1.6.87L18,37.09l-.05-1.82Z"/><path id="Tracé_2418" data-name="Tracé 2418" class="cls-1" d="M31.88,12.07l-1.6.95V27.57l1.6.87Z"/><path id="Tracé_2419" data-name="Tracé 2419" class="cls-5" d="M17.74,5.93,30.28,13l1.59-.94-14.1-8Z"/><path id="Tracé_2420" data-name="Tracé 2420" class="cls-6" d="M3.06,12.51l14.72-8.4,0,1.82L4.66,13.4Z"/><path id="Tracé_2421" data-name="Tracé 2421" class="cls-8" d="M.31,30.71v1.63L18,42.37V40.71Z"/><path id="Tracé_2422" data-name="Tracé 2422" class="cls-9" d="M35.67,30.71v1.63L18,42.37V40.71Z"/><circle class="cls-10" cx="17.96" cy="17.89" r="2.48"/><path class="cls-10" d="M13.46,25.51a4.5,4.5,0,1,1,9,0C22.46,28,13.46,28,13.46,25.51Z"/></g></g></svg>