<svg xmlns="http://www.w3.org/2000/svg">
  <symbol id="color" viewBox="0 0 80 80">
    <path fill="#f39200" d="M15.66,8.3h0l.04-.03-.04,.03Z"/>
    <path fill="#f39200"
          d="M40.16,0c-5.46,0-10.66,1.09-15.4,3.06h-.02c-3.25,1.36-6.28,3.11-9.03,5.22l-.04,.03,6.2,8.05c-7.2,5.51-11.84,14.17-11.84,23.92,0,1.29,.09,2.57,.25,3.82l6.65-.87c-.12-.97-.19-1.95-.19-2.95,0-7.59,3.62-14.33,9.22-18.61,1.61-1.23,3.38-2.26,5.28-3.04l-3.91-9.39c3.95-1.64,8.28-2.54,12.83-2.54,13.98,0,25.95,8.54,30.99,20.67l6.19-2.56h0C71.3,10.24,56.93,0,40.16,0Z"/>
    <path fill="#ec6608" d="M79.66,34.58h0v0Z"/>
    <path fill="#ec6608"
          d="M74.61,59.91c2.73-4.72,4.38-9.76,5.04-14.84h0v-.02c.45-3.48,.45-6.98,0-10.41v-.05l-10.09,1.34c-1.18-8.97-6.37-17.32-14.83-22.2-1.12-.65-2.27-1.21-3.44-1.69l-2.57,6.18c.9,.38,1.79,.81,2.65,1.31,6.58,3.79,10.63,10.29,11.54,17.28,.26,2.01,.27,4.05,0,6.09l10.1,1.32c-.56,4.23-1.94,8.43-4.21,12.36-6.99,12.08-20.38,18.17-33.42,16.46l-.87,6.63h0c15.65,2.06,31.72-5.25,40.11-19.74Z"/>
    <polygon fill="#fff" points="52.89 34.57 50.43 33.86 48.84 33.4 48.37 31.8 47.64 29.27 48.99 29.27 52.89 34.57"/>
    <polygon fill="#fff"
             points="54.2 36.33 47.18 46.29 39.88 56.68 32.59 46.29 25.56 36.33 30.77 29.27 47.44 29.27 46.71 31.8 46.25 33.4 44.65 33.86 41.76 34.69 44.65 35.53 46.25 35.99 46.71 37.58 47.54 40.46 48.37 37.58 48.84 35.99 50.43 35.53 53.04 34.77 54.2 36.33"/>
    <polygon fill="#fff" points="47.64 29.27 47.44 29.27 47.54 28.92 47.64 29.27"/>
    <polygon fill="#fff" points="53.32 34.69 53.04 34.77 52.89 34.57 53.32 34.69"/>
    <polygon fill="#fff"
             points="53.32 27.59 53.64 28.7 53.82 29.31 54.43 29.48 55.54 29.8 54.43 30.12 53.82 30.3 53.64 30.91 53.32 32.01 53 30.91 52.83 30.3 52.22 30.12 51.11 29.8 52.22 29.48 52.83 29.31 53 28.7 53.32 27.59 53.32 27.59"/>
    <path fill="#d60b51" d="M24.85,77.2h0l-.05-.03,.04,.03Z"/>
    <path fill="#d60b51"
          d="M5.4,60.17c2.73,4.72,6.28,8.66,10.36,11.78h.02c2.79,2.15,5.83,3.89,9.03,5.22l.05,.02,3.88-9.39c8.38,3.47,18.21,3.15,26.67-1.72,1.12-.65,2.18-1.36,3.19-2.13l-4.08-5.31c-.78,.59-1.59,1.14-2.46,1.64-6.58,3.79-14.24,4.04-20.76,1.34-1.87-.78-3.65-1.8-5.28-3.05l-6.19,8.07c-3.39-2.6-6.35-5.89-8.62-9.82-6.99-12.08-5.57-26.7,2.44-37.12l-5.32-4.07h0C-1.29,28.13-2.99,45.67,5.4,60.17Z"/>
  </symbol>
  <symbol id="white" viewBox="0 0 80 80">
    <path fill="currentColor" d="M15.66,8.3h0l.04-.03-.04,.03Z"/>
    <path fill="#fff"
          d="M40.16,0c-5.46,0-10.66,1.09-15.4,3.06h-.02c-3.25,1.36-6.28,3.11-9.03,5.22l-.04,.03,6.2,8.05c-7.2,5.51-11.84,14.17-11.84,23.92,0,1.29,.09,2.57,.25,3.82l6.65-.87c-.12-.97-.19-1.95-.19-2.95,0-7.59,3.62-14.33,9.22-18.61,1.61-1.23,3.38-2.26,5.28-3.04l-3.91-9.39c3.95-1.64,8.28-2.54,12.83-2.54,13.98,0,25.95,8.54,30.99,20.67l6.19-2.56h0C71.3,10.24,56.93,0,40.16,0Z"/>
    <path fill="#fff" d="M79.66,34.58h0v0Z"/>
    <path fill="#fff"
          d="M74.61,59.91c2.73-4.72,4.38-9.76,5.04-14.84h0v-.02c.45-3.48,.45-6.98,0-10.41v-.05l-10.09,1.34c-1.18-8.97-6.37-17.32-14.83-22.2-1.12-.65-2.27-1.21-3.44-1.69l-2.57,6.18c.9,.38,1.79,.81,2.65,1.31,6.58,3.79,10.63,10.29,11.54,17.28,.26,2.01,.27,4.05,0,6.09l10.1,1.32c-.56,4.23-1.94,8.43-4.21,12.36-6.99,12.08-20.38,18.17-33.42,16.46l-.87,6.63h0c15.65,2.06,31.72-5.25,40.11-19.74Z"/>
    <polygon fill="#fff" points="52.89 34.57 50.43 33.86 48.84 33.4 48.37 31.8 47.64 29.27 48.99 29.27 52.89 34.57"/>
    <polygon fill="#fff"
             points="54.2 36.33 47.18 46.29 39.88 56.68 32.59 46.29 25.56 36.33 30.77 29.27 47.44 29.27 46.71 31.8 46.25 33.4 44.65 33.86 41.76 34.69 44.65 35.53 46.25 35.99 46.71 37.58 47.54 40.46 48.37 37.58 48.84 35.99 50.43 35.53 53.04 34.77 54.2 36.33"/>
    <polygon fill="#fff" points="47.64 29.27 47.44 29.27 47.54 28.92 47.64 29.27"/>
    <polygon fill="#fff" points="53.32 34.69 53.04 34.77 52.89 34.57 53.32 34.69"/>
    <polygon fill="#fff"
             points="53.32 27.59 53.64 28.7 53.82 29.31 54.43 29.48 55.54 29.8 54.43 30.12 53.82 30.3 53.64 30.91 53.32 32.01 53 30.91 52.83 30.3 52.22 30.12 51.11 29.8 52.22 29.48 52.83 29.31 53 28.7 53.32 27.59 53.32 27.59"/>
    <path fill="#fff" d="M24.85,77.2h0l-.05-.03,.04,.03Z"/>
    <path fill="#fff"
          d="M5.4,60.17c2.73,4.72,6.28,8.66,10.36,11.78h.02c2.79,2.15,5.83,3.89,9.03,5.22l.05,.02,3.88-9.39c8.38,3.47,18.21,3.15,26.67-1.72,1.12-.65,2.18-1.36,3.19-2.13l-4.08-5.31c-.78,.59-1.59,1.14-2.46,1.64-6.58,3.79-14.24,4.04-20.76,1.34-1.87-.78-3.65-1.8-5.28-3.05l-6.19,8.07c-3.39-2.6-6.35-5.89-8.62-9.82-6.99-12.08-5.57-26.7,2.44-37.12l-5.32-4.07h0C-1.29,28.13-2.99,45.67,5.4,60.17Z"/>
  </symbol>
</svg>
