<?xml version="1.0" encoding="UTF-8"?><svg id="Calque_2" xmlns="http://www.w3.org/2000/svg" viewBox="0 0 231.01 230.77"><defs><style>.cls-1{fill:#fff;}</style></defs><g id="Calque_1-2"><g><path class="cls-1" d="M156.38,167.71c0,6.9,5.6,12.5,12.5,12.5s12.5-5.6,12.5-12.5V62.83c0-6.9-5.6-12.5-12.5-12.5s-12.5,5.6-12.5,12.5v39.82H25V25h42c6.9,0,12.5-5.6,12.5-12.5S73.9,0,67,0H12.5C5.6,0,0,5.6,0,12.5V218.27c0,6.9,5.6,12.5,12.5,12.5H108.98c6.9,0,12.5-5.6,12.5-12.5s-5.6-12.5-12.5-12.5H25V127.65H103.48v27.56H63.93c-6.9,0-12.5,5.6-12.5,12.5s5.6,12.5,12.5,12.5h52.05c6.9,0,12.5-5.6,12.5-12.5v-40.06h27.9v40.06Z"/><path class="cls-1" d="M218.51,0H115.98c-6.9,0-12.5,5.6-12.5,12.5V53.07H63.93c-6.9,0-12.5,5.6-12.5,12.5s5.6,12.5,12.5,12.5h52.05c6.9,0,12.5-5.6,12.5-12.5V25h77.53V205.77h-47.75c-6.9,0-12.5,5.6-12.5,12.5s5.6,12.5,12.5,12.5h60.25c6.9,0,12.5-5.6,12.5-12.5V12.5c0-6.9-5.6-12.5-12.5-12.5Z"/></g></g></svg>