<svg xmlns="http://www.w3.org/2000/svg" viewBox="0 0 14.92 14.93"><defs><style>.cls-1{fill:#878787;}.cls-2{fill:#706f6f;}.cls-3{fill:#ededed;}.cls-4{fill:#9d9d9c;}.cls-5{fill:#ae2c2b;}.cls-6{fill:#bc3c3c;}.cls-7{fill:#575756;}.cls-8{fill:#3c3c3b;}</style></defs><title>durée</title><g id="Calque_2" data-name="Calque 2"><g id="Calque_1-2" data-name="Calque 1"><circle id="Ellipse_133" data-name="Ellipse 133" class="cls-1" cx="7.18" cy="7.19" r="7.07"/><path id="Tracé_2670" data-name="Tracé 2670" class="cls-2" d="M2.19,2.19a7.46,7.46,0,0,1,10.56,0,7.62,7.62,0,0,1,1.47,2.08,7.48,7.48,0,0,1-3.61,10l-.43.19A7.43,7.43,0,0,1,0,7.17a7.5,7.5,0,0,1,2.17-5Zm0,0a6.65,6.65,0,1,0,5-2A6.66,6.66,0,0,0,2.19,2.19Z"/><circle id="Ellipse_134" data-name="Ellipse 134" class="cls-3" cx="7.21" cy="7" r="5.8"/><path id="Tracé_2671" data-name="Tracé 2671" class="cls-4" d="M11.31,11.1a6,6,0,1,1,.14-8.34,6,6,0,0,1-.14,8.34Zm0,0a5.78,5.78,0,0,0,1.25-1.88,5.62,5.62,0,1,0-3.13,3.13A5.78,5.78,0,0,0,11.31,11.1Z"/><path id="Tracé_2672" data-name="Tracé 2672" class="cls-5" d="M7.12,7.43,10,7.12l-2.89.15Z"/><path id="Tracé_2673" data-name="Tracé 2673" class="cls-6" d="M7.12,7.43,10,7.12l-2.82.47Z"/><path id="Tracé_2674" data-name="Tracé 2674" class="cls-6" d="M7.11,7.36,3.82,4.94,7,7.55Z"/><path id="Tracé_2675" data-name="Tracé 2675" class="cls-5" d="M7.11,7.36,3.82,4.94,7.25,7.17Z"/><circle id="Ellipse_135" data-name="Ellipse 135" class="cls-7" cx="7.19" cy="7.42" r="0.27"/><path id="Tracé_2676" data-name="Tracé 2676" class="cls-8" d="M7,7.64a.28.28,0,0,1,.33-.45.29.29,0,0,1,.06.4h0A.28.28,0,0,1,7,7.64Zm0,0a.27.27,0,0,0,.38-.06.27.27,0,0,0-.06-.37.26.26,0,0,0-.37,0H7A.27.27,0,0,0,7,7.64Z"/></g></g></svg>