<svg xmlns="http://www.w3.org/2000/svg" viewBox="0 0 27.12 24.47"><defs><style>.cls-1{fill:#f4b53f;}.cls-2{fill:#fcecba;}.cls-3{fill:#f8d667;}.cls-4{fill:#f1a43a;}.cls-5{fill:#f6cb50;}.cls-6{fill:#fae08f;}.cls-7{fill:#f5c344;}.cls-8{fill:#f09436;}.cls-9{fill:#ed772f;}.cls-10{fill:#fcf9f0;}.cls-11{fill:#0f9169;}.cls-12{fill:#097c56;}</style></defs><title>level_3_petit</title><g id="Calque_2" data-name="Calque 2"><g id="Calque_1-2" data-name="Calque 1"><g id="Groupe_850" data-name="Groupe 850"><g id="Groupe_60" data-name="Groupe 60"><g id="Groupe_59" data-name="Groupe 59"><path id="Tracé_2432" data-name="Tracé 2432" class="cls-1" d="M6,15.7V7.29l7.45-4.35,7.14,4.13v8.47l-7,4.47Z"/><path id="Tracé_2433" data-name="Tracé 2433" class="cls-2" d="M13.45,2.32V0l9.92,5.76L21.26,6.83Z"/><path id="Tracé_2434" data-name="Tracé 2434" class="cls-3" d="M21.26,16.09l2.11,1.29V5.76L21.26,6.83Z"/><path id="Tracé_2435" data-name="Tracé 2435" class="cls-4" d="M13.56,21v2l9.8-5.65-2.1-1.28Z"/><path id="Tracé_2436" data-name="Tracé 2436" class="cls-1" d="M5.31,16.26,3.78,17.37,13.56,23V21Z"/><path id="Tracé_2437" data-name="Tracé 2437" class="cls-5" d="M5.32,7.08l-1.7-1,.16,11.3,1.53-1.11Z"/><path id="Tracé_2438" data-name="Tracé 2438" class="cls-6" d="M13.45,0V2.32L5.31,7.08l-1.7-1Z"/><path id="Tracé_2439" data-name="Tracé 2439" class="cls-6" d="M6.19,7.58l-.88-.51v9.19l.88-.51Z"/><path id="Tracé_2440" data-name="Tracé 2440" class="cls-2" d="M13.53,20l0,1L5.31,16.26l.88-.5Z"/><path id="Tracé_2441" data-name="Tracé 2441" class="cls-7" d="M20.38,15.6l.88.49L13.56,21l0-1Z"/><path id="Tracé_2442" data-name="Tracé 2442" class="cls-5" d="M21.26,6.83l-.88.53v8.23l.88.5Z"/><path id="Tracé_2443" data-name="Tracé 2443" class="cls-5" d="M13.44,3.35l6.94,4,.88-.53L13.45,2.32Z"/><path id="Tracé_2444" data-name="Tracé 2444" class="cls-3" d="M5.31,7.07l8.15-4.75,0,1L6.2,7.58Z"/><path id="Tracé_2445" data-name="Tracé 2445" class="cls-8" d="M3.78,17.37v.92L13.56,24V23Z"/><path id="Tracé_2446" data-name="Tracé 2446" class="cls-9" d="M23.37,17.37v.92L13.56,24V23Z"/></g><path id="Tracé_2448" data-name="Tracé 2448" class="cls-10" d="M13.69,9.45V9.37h-1.6l-.43,0a1.19,1.19,0,0,1-.41-.11A.67.67,0,0,1,11,9a.77.77,0,0,1-.12-.47A.73.73,0,0,1,11,8.06a.67.67,0,0,1,.3-.25,1.19,1.19,0,0,1,.41-.11l.43,0h2.75a1.32,1.32,0,0,1,.44.08,1,1,0,0,1,.33.21.83.83,0,0,1,.2.3.84.84,0,0,1,.07.35,1.36,1.36,0,0,1,0,.2.44.44,0,0,1-.07.19l-1.11,1.83a2.57,2.57,0,0,1,.56.31,2.19,2.19,0,0,1,.48.48,2.61,2.61,0,0,1,.34.69,3.2,3.2,0,0,1,.13.92,4.06,4.06,0,0,1-.13,1,2.78,2.78,0,0,1-.34.79,2.1,2.1,0,0,1-.5.57,2.92,2.92,0,0,1-.61.37,3,3,0,0,1-.67.2,3.82,3.82,0,0,1-.68.06,3.25,3.25,0,0,1-1.11-.2,2.77,2.77,0,0,1-.55-.26,2,2,0,0,1-.47-.35,1.7,1.7,0,0,1-.32-.47,1.34,1.34,0,0,1-.12-.56.92.92,0,0,1,0-.29.75.75,0,0,1,.13-.25.66.66,0,0,1,.23-.17.75.75,0,0,1,.33-.06.79.79,0,0,1,.47.14,1.09,1.09,0,0,1,.37.43.58.58,0,0,0,.11.15.74.74,0,0,0,.2.16,1.3,1.3,0,0,0,.3.13,2,2,0,0,0,.42.05,1.35,1.35,0,0,0,.59-.11,1.05,1.05,0,0,0,.36-.3,1.14,1.14,0,0,0,.19-.42,1.83,1.83,0,0,0,.05-.47,1.3,1.3,0,0,0-.34-.91,1.22,1.22,0,0,0-.36-.27.91.91,0,0,0-.4-.1.62.62,0,0,1-.67-.66.92.92,0,0,1,0-.28,1.58,1.58,0,0,1,.16-.35Z"/></g><g id="Groupe_850-2" data-name="Groupe 850-2"><path id="Tracé_3702" data-name="Tracé 3702" class="cls-11" d="M14,23.67s2.4-.17,1.36-4.32C15.39,19.35,12,21.76,14,23.67Z"/><path id="Tracé_3703" data-name="Tracé 3703" class="cls-12" d="M18.94,24.2s-2.35-3.46-4.22-1.39c0,0,.16,2.45,4.22,1.39"/><path id="Tracé_3704" data-name="Tracé 3704" class="cls-11" d="M17,22.74s2.32-.68.44-4.51C17.4,18.23,14.59,21.32,17,22.74Z"/><path id="Tracé_3705" data-name="Tracé 3705" class="cls-12" d="M21.88,22.2s-3-2.88-4.42-.45c0,0,.67,2.37,4.42.45"/><path id="Tracé_3706" data-name="Tracé 3706" class="cls-11" d="M19.57,21.23S21.67,20,19,16.74C19,16.74,16.94,20.42,19.57,21.23Z"/><path id="Tracé_3707" data-name="Tracé 3707" class="cls-12" d="M24.22,19.52s-3.6-2.07-4.39.63c0,0,1.19,2.13,4.39-.63"/><path id="Tracé_3708" data-name="Tracé 3708" class="cls-11" d="M21.7,19s1.71-1.73-1.73-4.17C20,14.84,18.94,18.93,21.7,19Z"/><path id="Tracé_3709" data-name="Tracé 3709" class="cls-11" d="M23.62,14.15s2.4-.23,1.25-4.35C24.87,9.8,21.55,12.3,23.62,14.15Z"/><path id="Tracé_3710" data-name="Tracé 3710" class="cls-12" d="M25.75,16.13s-4-1-4.08,1.77c0,0,1.69,1.75,4.08-1.77"/><path id="Tracé_3711" data-name="Tracé 3711" class="cls-11" d="M22.65,16.39s2-1.42-1-4.41C21.62,12,20,15.83,22.65,16.39Z"/><path id="Tracé_3712" data-name="Tracé 3712" class="cls-12" d="M27.12,14.23s-3.78-1.71-4.31,1c0,0,1.38,2,4.31-1"/></g><g id="Groupe_851" data-name="Groupe 851"><path id="Tracé_3713" data-name="Tracé 3713" class="cls-11" d="M13.09,23.67s-2.4-.16-1.36-4.31C11.73,19.36,15.11,21.77,13.09,23.67Z"/><path id="Tracé_3714" data-name="Tracé 3714" class="cls-12" d="M8.18,24.2s2.35-3.46,4.22-1.39c0,0-.16,2.46-4.22,1.39"/><path id="Tracé_3715" data-name="Tracé 3715" class="cls-11" d="M10.16,22.75s-2.32-.68-.44-4.51C9.72,18.24,12.53,21.33,10.16,22.75Z"/><path id="Tracé_3716" data-name="Tracé 3716" class="cls-12" d="M5.24,22.2s3-2.87,4.42-.44c0,0-.67,2.36-4.42.44"/><path id="Tracé_3717" data-name="Tracé 3717" class="cls-11" d="M7.55,21.23s-2.1-1.22.61-4.49C8.16,16.75,10.18,20.42,7.55,21.23Z"/><path id="Tracé_3718" data-name="Tracé 3718" class="cls-12" d="M2.9,19.52s3.6-2.06,4.39.63c0,0-1.19,2.14-4.39-.63"/><path id="Tracé_3719" data-name="Tracé 3719" class="cls-11" d="M5.42,19s-1.71-1.73,1.73-4.18C7.15,14.85,8.18,18.93,5.42,19Z"/><path id="Tracé_3720" data-name="Tracé 3720" class="cls-11" d="M3.5,14.16S1.1,13.92,2.25,9.8C2.25,9.8,5.58,12.31,3.5,14.16Z"/><path id="Tracé_3721" data-name="Tracé 3721" class="cls-12" d="M1.37,16.14s4-1.05,4.08,1.77c0,0-1.69,1.74-4.08-1.77"/><path id="Tracé_3722" data-name="Tracé 3722" class="cls-11" d="M4.47,16.39S2.5,15,5.5,12C5.5,12,7.17,15.84,4.47,16.39Z"/><path id="Tracé_3723" data-name="Tracé 3723" class="cls-12" d="M0,14.23s3.78-1.7,4.32,1.06c0,0-1.39,2-4.32-1.06"/></g></g></g></g></svg>