<svg xmlns="http://www.w3.org/2000/svg" viewBox="0 0 26.5 31.45"><defs><style>.cls-1{fill:#f4b53f;}.cls-2{fill:#fcecba;}.cls-3{fill:#f8d667;}.cls-4{fill:#f1a43a;}.cls-5{fill:#f6cb50;}.cls-6{fill:#fae08f;}.cls-7{fill:#f5c344;}.cls-8{fill:#f09436;}.cls-9{fill:#ed772f;}.cls-10{isolation:isolate;}.cls-11{fill:#fffefa;}</style></defs><title>pts</title><g id="Calque_2" data-name="Calque 2"><g id="Calque_1-2" data-name="Calque 1"><g id="Groupe_852" data-name="Groupe 852"><g id="Groupe_59" data-name="Groupe 59"><path id="Tracé_2432" data-name="Tracé 2432" class="cls-1" d="M3.19,20.61v-11l10-5.7,9.58,5.41V20.4l-9.45,5.87Z"/><path id="Tracé_2433" data-name="Tracé 2433" class="cls-2" d="M13.2,3.05V0L26.5,7.56,23.67,9Z"/><path id="Tracé_2434" data-name="Tracé 2434" class="cls-3" d="M23.67,21.12,26.5,22.8V7.56L23.67,9Z"/><path id="Tracé_2435" data-name="Tracé 2435" class="cls-4" d="M13.34,27.54v2.68L26.49,22.8l-2.82-1.68Z"/><path id="Tracé_2436" data-name="Tracé 2436" class="cls-1" d="M2.28,21.35l-2,1.45,13.11,7.42V27.54Z"/><path id="Tracé_2437" data-name="Tracé 2437" class="cls-5" d="M2.29,9.29,0,8,.23,22.8l2.05-1.45Z"/><path id="Tracé_2438" data-name="Tracé 2438" class="cls-6" d="M13.2,0V3.05L2.28,9.29,0,8Z"/><path id="Tracé_2439" data-name="Tracé 2439" class="cls-6" d="M3.46,10,2.28,9.28V21.34l1.18-.66Z"/><path id="Tracé_2440" data-name="Tracé 2440" class="cls-2" d="M13.3,26.18l0,1.36L2.28,21.35l1.18-.67Z"/><path id="Tracé_2441" data-name="Tracé 2441" class="cls-7" d="M22.49,20.47l1.18.65L13.34,27.54l0-1.36Z"/><path id="Tracé_2442" data-name="Tracé 2442" class="cls-5" d="M23.67,9l-1.18.7v10.8l1.18.64Z"/><path id="Tracé_2443" data-name="Tracé 2443" class="cls-5" d="M13.18,4.4l9.31,5.27L23.67,9,13.2,3.05Z"/><path id="Tracé_2444" data-name="Tracé 2444" class="cls-3" d="M2.28,9.28,13.21,3.05l0,1.35L3.47,10Z"/><path id="Tracé_2445" data-name="Tracé 2445" class="cls-8" d="M.23,22.8V24l13.11,7.45V30.22Z"/><path id="Tracé_2446" data-name="Tracé 2446" class="cls-9" d="M26.5,22.8V24L13.34,31.45V30.22Z"/></g><g id="PTS" class="cls-10"><g class="cls-10"><path class="cls-11" d="M8.13,15.75v1.43c0,.12,0,.24,0,.36a1,1,0,0,1-.08.32.5.5,0,0,1-.2.23.7.7,0,0,1-.39.09.69.69,0,0,1-.38-.09.5.5,0,0,1-.2-.23,1,1,0,0,1-.07-.32c0-.12,0-.24,0-.36V13c0-.13,0-.25,0-.37a1,1,0,0,1,.07-.32.5.5,0,0,1,.2-.23A.69.69,0,0,1,7.45,12H8.9a2.66,2.66,0,0,1,1,.23,2.16,2.16,0,0,1,.36.22,1.4,1.4,0,0,1,.31.33,1.36,1.36,0,0,1,.23.45,2.34,2.34,0,0,1-.07,1.43,1.67,1.67,0,0,1-.42.59,1.93,1.93,0,0,1-.68.36,3.18,3.18,0,0,1-.91.12Zm.59-1a1,1,0,0,0,.4-.11.71.71,0,0,0,.14-.1.67.67,0,0,0,.22-.37,1.14,1.14,0,0,0,0-.28,1,1,0,0,0,0-.26.84.84,0,0,0-.08-.19.87.87,0,0,0-.12-.14l-.14-.1a1.06,1.06,0,0,0-.37-.1H8.13v1.65Z"/><path class="cls-11" d="M14.2,12l.35,0a1.14,1.14,0,0,1,.33.07.6.6,0,0,1,.23.19.58.58,0,0,1,.09.35.55.55,0,0,1-.09.34.53.53,0,0,1-.23.19,1.14,1.14,0,0,1-.33.08h-.8v3.91c0,.12,0,.24,0,.36a1,1,0,0,1-.07.32.5.5,0,0,1-.2.23.7.7,0,0,1-.39.09.69.69,0,0,1-.38-.09.5.5,0,0,1-.2-.23.79.79,0,0,1-.07-.32c0-.12,0-.24,0-.36V13.27h-.8a1.07,1.07,0,0,1-.32-.08.5.5,0,0,1-.24-.19.55.55,0,0,1-.09-.34.58.58,0,0,1,.09-.35.57.57,0,0,1,.24-.19,1.07,1.07,0,0,1,.32-.07L12,12Z"/><path class="cls-11" d="M17,13.57a.56.56,0,0,0,.1.33,1.24,1.24,0,0,0,.28.28,2.81,2.81,0,0,0,.38.26l.44.26.44.3a2.3,2.3,0,0,1,.39.37,2,2,0,0,1,.28.47,1.55,1.55,0,0,1,.11.59v0a2,2,0,0,1-.09.63,1.53,1.53,0,0,1-.23.46,1.29,1.29,0,0,1-.34.32,1.66,1.66,0,0,1-.4.2,2.36,2.36,0,0,1-.44.11l-.41,0h0a2.49,2.49,0,0,1-.65-.07,2,2,0,0,1-.49-.2,1.35,1.35,0,0,1-.33-.29,1.79,1.79,0,0,1-.22-.34,1.5,1.5,0,0,1-.11-.34,1.27,1.27,0,0,1,0-.32.6.6,0,0,1,.06-.27.45.45,0,0,1,.33-.29.64.64,0,0,1,.24,0,.66.66,0,0,1,.23,0,.55.55,0,0,1,.22.1.49.49,0,0,1,.16.19.44.44,0,0,1,.07.26.49.49,0,0,0,.56.57.93.93,0,0,0,.24,0,.45.45,0,0,0,.32-.3,1,1,0,0,0-.06-.72,1.68,1.68,0,0,0-.27-.34,4.2,4.2,0,0,0-.38-.3l-.44-.29-.44-.29a2.55,2.55,0,0,1-.38-.35,1.38,1.38,0,0,1-.28-.4,1.36,1.36,0,0,1-.11-.51v-.07a2.45,2.45,0,0,1,.13-.79,1.19,1.19,0,0,1,.35-.49,1.34,1.34,0,0,1,.58-.26,3.15,3.15,0,0,1,.79-.08h.11a2.31,2.31,0,0,1,.69.09,1.71,1.71,0,0,1,.47.22,1.21,1.21,0,0,1,.29.31,1.31,1.31,0,0,1,.16.34,1.25,1.25,0,0,1,.07.31,2.11,2.11,0,0,1,0,.23.6.6,0,0,1-.05.24.49.49,0,0,1-.14.18A.56.56,0,0,1,19,14a.69.69,0,0,1-.25,0,.52.52,0,0,1-.21,0,.59.59,0,0,1-.19-.11.5.5,0,0,1-.14-.15.37.37,0,0,1-.05-.17.71.71,0,0,0-.13-.5A.47.47,0,0,0,17.6,13h-.23a.43.43,0,0,0-.2.07.42.42,0,0,0-.13.18A.86.86,0,0,0,17,13.57Z"/></g></g></g></g></g></svg>