<svg xmlns="http://www.w3.org/2000/svg" viewBox="0 0 45.54 45.41"><defs><style>.cls-1{fill:#fcf0f0;}</style></defs><title>puzzle_cards_recherche</title><g id="Calque_2" data-name="Calque 2"><g id="Calque_1-2" data-name="Calque 1"><path id="Tracé_3764" data-name="Tracé 3764" class="cls-1" d="M39.87,23.28a4.49,4.49,0,0,1,3.84,2.18l.17.31c.48,1,1.2,1,1.66-.15V10.14H30c-1.07-.42-1.15-1.06-.35-1.54l.47-.26.09,0h0A4.5,4.5,0,1,0,24,6.9a4.59,4.59,0,0,0,1.4,1.41h0l.09,0,.06,0c1.2.5,1.15,1.3-.15,1.77H10.27V25.56c-.49,1.15-1.26,1.18-1.78.15l-.15-.28,0-.06a4.52,4.52,0,1,0,0,4.81L8.38,30c.54-1.18,1.39-1.13,1.89.16V45.41H45.54V30.12c-.48-1.28-1.29-1.32-1.79-.1l0,.08a4.5,4.5,0,1,1-3.84-6.83Z"/></g></g></svg>