<svg xmlns="http://www.w3.org/2000/svg" xmlns:xlink="http://www.w3.org/1999/xlink" viewBox="0 0 31.41 31.42"><defs><style>.cls-1{opacity:0.23;isolation:isolate;fill:url(#Dégradé_sans_nom_5);}.cls-2{fill:#d9d9d9;}.cls-3{fill:#dadada;}.cls-4{fill:#b2b2b2;}.cls-5{fill:#fcfcfc;}</style><radialGradient id="Dégradé_sans_nom_5" cx="214.21" cy="1099.64" r="0.6" gradientTransform="matrix(11.77, -11.77, -11.34, -11.34, 9622, 15253.5)" gradientUnits="userSpaceOnUse"><stop offset="0.37" stop-color="#afebff"/><stop offset="0.54" stop-color="#a3e5ff"/><stop offset="0.83" stop-color="#86d7ff"/><stop offset="1" stop-color="#72ceff"/></radialGradient></defs><title>loupe</title><g id="Calque_2" data-name="Calque 2"><g id="Calque_1-2" data-name="Calque 1"><g id="loupe"><g id="Groupe_602" data-name="Groupe 602"><circle id="Ellipse_263" data-name="Ellipse 263" class="cls-1" cx="10.59" cy="10.59" r="8.32"/><g id="Groupe_598" data-name="Groupe 598"><path id="Rectangle_1050" data-name="Rectangle 1050" class="cls-2" d="M16.05,18.19l2.14-2.14h0L31,28.86a1.42,1.42,0,0,1,0,2h0l-.14.14a1.42,1.42,0,0,1-2,0L16.05,18.19Z"/></g><g id="Groupe_601" data-name="Groupe 601"><g id="Groupe_600" data-name="Groupe 600"><path id="Tracé_3454" data-name="Tracé 3454" class="cls-3" d="M3.14,3.14a10.54,10.54,0,1,0,14.9,0h0A10.54,10.54,0,0,0,3.14,3.14ZM16.43,16.43a8.26,8.26,0,1,1,0-11.68,8.27,8.27,0,0,1,0,11.68Z"/><g id="Groupe_599" data-name="Groupe 599"><path id="Tracé_3455" data-name="Tracé 3455" class="cls-4" d="M3.14,3.14a10.53,10.53,0,0,0-3,7.45A10.36,10.36,0,0,0,10.58,20.83h0A10.37,10.37,0,0,0,10.6.1h0A10.53,10.53,0,0,0,3.14,3.14Zm0,0A10.59,10.59,0,0,1,10.59,0,10.71,10.71,0,0,1,21.43,10.59h0a10.73,10.73,0,0,1-10.6,10.84h-.24A10.71,10.71,0,0,1,0,10.59,10.59,10.59,0,0,1,3.14,3.14Z"/><path id="Tracé_3456" data-name="Tracé 3456" class="cls-4" d="M16.43,16.43a8.32,8.32,0,0,1-5.84,2.46A8.43,8.43,0,1,1,10.35,2h.24a8.43,8.43,0,0,1,8.31,8.55h0A8.31,8.31,0,0,1,16.43,16.43Zm0,0a8.29,8.29,0,0,0,2.37-5.84,8.08,8.08,0,0,0-8.2-7.95h0a8.08,8.08,0,0,0,0,16.15A8.24,8.24,0,0,0,16.43,16.43Z"/></g></g></g><path id="Tracé_3457" data-name="Tracé 3457" class="cls-5" d="M3.94,11.36a7.05,7.05,0,0,0,6,6A13.07,13.07,0,0,1,3.94,11.36Z"/><path id="Tracé_3458" data-name="Tracé 3458" class="cls-5" d="M11.61,3.68a7,7,0,0,1,6,6A13.12,13.12,0,0,0,11.61,3.68Z"/></g></g></g></g></svg>