<svg xmlns="http://www.w3.org/2000/svg" viewBox="0 0 172.78 42.37"><defs><style>.cls-1,.cls-5{fill:#215c84;}.cls-1{stroke:#1d5777;stroke-width:0.25px;}.cls-1,.cls-6{stroke-miterlimit:10;}.cls-2{fill:#f6f6f6;opacity:0.23;isolation:isolate;}.cls-3{fill:#103c68;}.cls-4{fill:#062e56;}.cls-6{fill:none;stroke:#78221a;stroke-width:1.47px;}.cls-7{fill:#4a95af;}.cls-8{fill:#0a3467;}.cls-9{fill:#114375;}.cls-10{fill:#194f7c;}.cls-11{fill:#3a81a0;}.cls-12{fill:#226089;}.cls-13{fill:#2e6f93;}.cls-14{fill:#07315b;}.cls-15{fill:#d9f5fc;}</style></defs><title>escape</title><g id="Calque_2" data-name="Calque 2"><g id="Calque_1-2" data-name="Calque 1"><path id="Tracé_2348" data-name="Tracé 2348" class="cls-1" d="M169.15,30.35H34.55v-18H169.17a3.12,3.12,0,0,1,3.48,2.42v13.1A3.14,3.14,0,0,1,169.15,30.35Z"/><path id="Rectangle_347" data-name="Rectangle 347" class="cls-2" d="M35.71,12.53H169.45a2.87,2.87,0,0,1,3.08,2.38v3.81H35.71Z"/><path id="Tracé_2410" data-name="Tracé 2410" class="cls-3" d="M35.68,30.69V10.15"/><path id="Tracé_2422" data-name="Tracé 2422" class="cls-4" d="M35.67,30.69v1.62"/><path id="Tracé_2407" data-name="Tracé 2407" class="cls-5" d="M4.29,27.76V12.9L17.75,5.21l12.9,7.29v15L17.92,35.39Z"/><path id="Tracé_2408" data-name="Tracé 2408" class="cls-6" d="M3.06,28.75V12.51l14.72-8.4,14.1,8V28.44L18,37.09Z"/><path id="Tracé_2409" data-name="Tracé 2409" class="cls-7" d="M17.78,4.11V0l17.9,10.18-3.8,1.9Z"/><path id="Tracé_2410-2" data-name="Tracé 2410" class="cls-3" d="M31.88,28.44l3.8,2.27V10.18l-3.8,1.9Z"/><path id="Tracé_2411" data-name="Tracé 2411" class="cls-8" d="M18,37.09v3.62l17.71-10-3.8-2.26Z"/><path id="Tracé_2412" data-name="Tracé 2412" class="cls-9" d="M3.06,28.75l-2.75,2L18,40.71V37.09Z"/><path id="Tracé_2413" data-name="Tracé 2413" class="cls-10" d="M3.06,12.51,0,10.73l.31,20,2.76-2Z"/><path id="Tracé_2414" data-name="Tracé 2414" class="cls-11" d="M17.78,0V4.11L3.06,12.51,0,10.73Z"/><path id="Tracé_2415" data-name="Tracé 2415" class="cls-3" d="M4.66,13.4l-1.6-.89V28.75l1.6-.9Z"/><path id="Tracé_2416" data-name="Tracé 2416" class="cls-7" d="M17.91,35.27,18,37.09,3.07,28.75l1.59-.9Z"/><path id="Tracé_2417" data-name="Tracé 2417" class="cls-10" d="M30.28,27.58l1.6.87L18,37.09l-.05-1.82Z"/><path id="Tracé_2418" data-name="Tracé 2418" class="cls-12" d="M31.88,12.07l-1.6.95V27.57l1.6.87Z"/><path id="Tracé_2419" data-name="Tracé 2419" class="cls-12" d="M17.74,5.93,30.28,13l1.59-.94-14.1-8Z"/><path id="Tracé_2420" data-name="Tracé 2420" class="cls-13" d="M3.06,12.51l14.72-8.4,0,1.82L4.66,13.4Z"/><path id="Tracé_2421" data-name="Tracé 2421" class="cls-14" d="M.31,30.71v1.63L18,42.37V40.71Z"/><path id="Tracé_2422-2" data-name="Tracé 2422" class="cls-4" d="M35.67,30.71v1.63L18,42.37V40.71Z"/><path class="cls-15" d="M21.32,16.05a3.58,3.58,0,1,0-4.4,3.47l-2.54,8.54v.73h6.73v-.73l-2.54-8.54A3.57,3.57,0,0,0,21.32,16.05Z"/></g></g></svg>