<svg xmlns="http://www.w3.org/2000/svg" viewBox="0 0 172.61 42.25"><defs><style>.cls-1{fill:#d50c53;}.cls-2{fill:#f6f6f6;opacity:0.23;isolation:isolate;}.cls-3{fill:none;stroke:#78221a;stroke-miterlimit:10;stroke-width:1.47px;}.cls-4{fill:#f987c5;}.cls-5{fill:#e22773;}.cls-6{fill:#c41059;}.cls-7{fill:#cc0e5c;}.cls-8{fill:#ed3e8e;}.cls-9{fill:#b5105c;}.cls-10{fill:#a01259;}.cls-11{fill:#fcedf6;}</style></defs><title>création</title><g id="Calque_2" data-name="Calque 2"><g id="Calque_1-2" data-name="Calque 1"><path d="M1.55,22.4h0l.09,0Z"/><path id="Tracé_2348" data-name="Tracé 2348" class="cls-1" d="M33.88,12h135.2c1.82-.1,3.4,1,3.53,2.44V27.62c-.14,1.46-1.72,2.56-3.56,2.46H33.88"/><path id="Rectangle_347" data-name="Rectangle 347" class="cls-2" d="M35.13,19.33V12.17H169.36c2,0,3,.7,3,2.28l.08,4.88H35.13Z"/><path id="Tracé_2407" data-name="Tracé 2407" class="cls-1" d="M4.28,27.68V12.86L17.7,5.2l12.87,7.27V27.41l-12.7,7.88Z"/><path id="Tracé_2408" data-name="Tracé 2408" class="cls-3" d="M3.06,28.67V12.47L17.73,4.1,31.79,12V28.36L17.91,37Z"/><path id="Tracé_2409" data-name="Tracé 2409" class="cls-4" d="M17.73,4.1V0L35.58,10.15l-3.79,1.9Z"/><path id="Tracé_2410" data-name="Tracé 2410" class="cls-5" d="M31.79,28.37l3.79,2.26V10.15L31.79,12Z"/><path id="Tracé_2411" data-name="Tracé 2411" class="cls-1" d="M17.91,37V40.6l17.67-10-3.79-2.26Z"/><path id="Tracé_2412" data-name="Tracé 2412" class="cls-6" d="M3.06,28.67l-2.76,2,17.61,10V37Z"/><path id="Tracé_2413" data-name="Tracé 2413" class="cls-7" d="M3.06,12.47,0,10.7.31,30.63l2.75-1.95Z"/><path id="Tracé_2414" data-name="Tracé 2414" class="cls-8" d="M17.73,0V4.1L3.06,12.47,0,10.7Z"/><path id="Tracé_2415" data-name="Tracé 2415" class="cls-5" d="M4.65,13.36l-1.59-.89v16.2l1.59-.9Z"/><path id="Tracé_2416" data-name="Tracé 2416" class="cls-4" d="M17.86,35.17,17.91,37,3.06,28.68l1.59-.9Z"/><path id="Tracé_2417" data-name="Tracé 2417" class="cls-8" d="M30.2,27.5l1.59.87L17.91,37l-.05-1.82Z"/><path id="Tracé_2418" data-name="Tracé 2418" class="cls-7" d="M31.79,12,30.2,13V27.5l1.59.86Z"/><path id="Tracé_2419" data-name="Tracé 2419" class="cls-6" d="M17.7,5.92,30.2,13,31.79,12,17.72,4.1Z"/><path id="Tracé_2420" data-name="Tracé 2420" class="cls-1" d="M3.06,12.47,17.73,4.1l0,1.82-13,7.45Z"/><path id="Tracé_2421" data-name="Tracé 2421" class="cls-9" d="M.3,30.63v1.62l17.61,10V40.6Z"/><path id="Tracé_2422" data-name="Tracé 2422" class="cls-10" d="M35.58,30.63v1.62l-17.67,10V40.6Z"/><path class="cls-11" d="M22.62,19.52a1.53,1.53,0,0,1,1.31.75l.06.11c.16.34.41.33.57-.05V15H19.23c-.36-.15-.39-.37-.12-.53l.17-.09h0a1.54,1.54,0,1,0-1.65,0h.05c.41.17.39.45-.05.61H12.48V20.3c-.16.4-.43.41-.61.06a.31.31,0,0,0,0-.1v0a1.54,1.54,0,1,0,0,1.65l0-.05c.18-.41.47-.39.64.05V27.1H24.56V21.87c-.17-.44-.45-.46-.62,0v0a1.54,1.54,0,1,1-1.31-2.34Z"/></g></g></svg>