<svg xmlns="http://www.w3.org/2000/svg" viewBox="0 0 149.59 84.06"><defs><style>.cls-1{fill:#f4b53f;}.cls-2{fill:#fcecba;}.cls-3{fill:#f8d667;}.cls-4{fill:#f1a43a;}.cls-5{fill:#f6cb50;}.cls-6{fill:#fae08f;}.cls-7{fill:#f5c344;}.cls-8{fill:#f09436;}.cls-9{fill:#ed772f;}.cls-10{isolation:isolate;}</style></defs><title>visuel_pop-up</title><g id="Calque_2" data-name="Calque 2"><g id="Calque_1-2" data-name="Calque 1"><g id="Groupe_360" data-name="Groupe 360"><g id="Groupe_60" data-name="Groupe 60"><g id="Groupe_59" data-name="Groupe 59"><path id="Tracé_2432" data-name="Tracé 2432" class="cls-1" d="M102.45,51.4V29.07l20.21-11.54,19.38,11V51L122.92,62.85Z"/><path id="Tracé_2433" data-name="Tracé 2433" class="cls-2" d="M122.7,15.88V9.71L149.59,25l-5.71,2.86Z"/><path id="Tracé_2434" data-name="Tracé 2434" class="cls-3" d="M143.88,52.42l5.71,3.41V25l-5.71,2.86Z"/><path id="Tracé_2435" data-name="Tracé 2435" class="cls-4" d="M123,65.41v5.43l26.6-15-5.71-3.4Z"/><path id="Tracé_2436" data-name="Tracé 2436" class="cls-1" d="M100.61,52.89l-4.15,3,26.52,15V65.42Z"/><path id="Tracé_2437" data-name="Tracé 2437" class="cls-5" d="M100.61,28.49,96,25.82l.46,30,4.15-3Z"/><path id="Tracé_2438" data-name="Tracé 2438" class="cls-6" d="M122.7,9.71v6.17L100.6,28.49,96,25.82Z"/><path id="Tracé_2439" data-name="Tracé 2439" class="cls-6" d="M103,29.84l-2.39-1.35v24.4L103,51.54Z"/><path id="Tracé_2440" data-name="Tracé 2440" class="cls-2" d="M122.9,62.67l.08,2.74L100.61,52.89,103,51.53Z"/><path id="Tracé_2441" data-name="Tracé 2441" class="cls-7" d="M141.48,51.13l2.4,1.3-20.9,13-.09-2.74Z"/><path id="Tracé_2442" data-name="Tracé 2442" class="cls-5" d="M143.88,27.85l-2.4,1.42V51.13l2.4,1.3Z"/><path id="Tracé_2443" data-name="Tracé 2443" class="cls-5" d="M122.65,18.62l18.83,10.64,2.4-1.41-21.18-12Z"/><path id="Tracé_2444" data-name="Tracé 2444" class="cls-3" d="M100.61,28.49l22.1-12.61,0,2.74L103,29.84Z"/><path id="Tracé_2445" data-name="Tracé 2445" class="cls-8" d="M96.46,55.84v2.43L123,73.33V70.84Z"/><path id="Tracé_2446" data-name="Tracé 2446" class="cls-9" d="M149.59,55.84v2.43L123,73.33V70.84Z"/><path id="Tracé_2447" data-name="Tracé 2447" class="cls-2" d="M111.19,43.05a7,7,0,0,1-.92-.06,2,2,0,0,1-.78-.26,1.53,1.53,0,0,1-.55-.58,2.52,2.52,0,0,1-.2-1,2.88,2.88,0,0,1,.2-1.12,1.43,1.43,0,0,1,.54-.6,2.1,2.1,0,0,1,.77-.24c.3,0,.6,0,.9,0h1.64V37.5a7.52,7.52,0,0,1,0-.82,1.85,1.85,0,0,1,.25-.76,1.45,1.45,0,0,1,.62-.53,2.7,2.7,0,0,1,1.16-.22,2.36,2.36,0,0,1,1.07.22,1.63,1.63,0,0,1,.61.53,1.86,1.86,0,0,1,.26.76,5.66,5.66,0,0,1,.06.82v1.59h1.67a8.11,8.11,0,0,1,.86,0,2,2,0,0,1,.77.24,1.41,1.41,0,0,1,.56.6A2.3,2.3,0,0,1,121,41.1a2,2,0,0,1-.22,1,1.49,1.49,0,0,1-.56.58,1.9,1.9,0,0,1-.77.26,6.11,6.11,0,0,1-.86.06h-1.66v1.62a6.36,6.36,0,0,1-.06.87,1.83,1.83,0,0,1-.27.75,1.4,1.4,0,0,1-.61.52,2.45,2.45,0,0,1-1.07.19,2.86,2.86,0,0,1-1.16-.19,1.4,1.4,0,0,1-.61-.52,1.82,1.82,0,0,1-.26-.75,8.46,8.46,0,0,1,0-.87V43.05Z"/></g><g id="_5" data-name=" 5" class="cls-10"><g class="cls-10"><path class="cls-2" d="M125.81,35.29A6.33,6.33,0,0,1,127,35a8.79,8.79,0,0,1,1.18-.09,6.38,6.38,0,0,1,1.09.11,5.35,5.35,0,0,1,1.22.38,5.67,5.67,0,0,1,1.2.7,4.33,4.33,0,0,1,1,1.09,5.72,5.72,0,0,1,.73,1.53,7.1,7.1,0,0,1,.27,2,8.65,8.65,0,0,1-.28,2.33,6.84,6.84,0,0,1-.75,1.77,5.28,5.28,0,0,1-1.11,1.27,5.87,5.87,0,0,1-1.35.82,6.59,6.59,0,0,1-1.49.46,8.61,8.61,0,0,1-1.5.13,7.38,7.38,0,0,1-1.7-.21,6.84,6.84,0,0,1-1.7-.64,5.75,5.75,0,0,1-1.41-1.08,3.39,3.39,0,0,1-.82-1.54,2.48,2.48,0,0,1-.08-.66,2.37,2.37,0,0,1,.09-.65,1.57,1.57,0,0,1,.29-.54,1.61,1.61,0,0,1,.5-.39,1.79,1.79,0,0,1,.73-.14,1.87,1.87,0,0,1,1,.32,2.35,2.35,0,0,1,.82,1,1.93,1.93,0,0,0,.25.34,1.67,1.67,0,0,0,.45.35,2.68,2.68,0,0,0,.68.28,3.14,3.14,0,0,0,.91.12,2.94,2.94,0,0,0,1.31-.25,2.15,2.15,0,0,0,.81-.67,2.47,2.47,0,0,0,.42-.93,4.57,4.57,0,0,0,.12-1,2.57,2.57,0,0,0-.24-1.15,2.19,2.19,0,0,0-.62-.81,2.78,2.78,0,0,0-.88-.48,3.43,3.43,0,0,0-1-.16,3.26,3.26,0,0,0-.87.12l-.86.25-.86.26a4,4,0,0,1-.91.11,2.7,2.7,0,0,1-.63-.07,1.42,1.42,0,0,1-.56-.25,1.35,1.35,0,0,1-.4-.48,1.61,1.61,0,0,1-.16-.78l.8-7.52a3.07,3.07,0,0,1,.11-.64,2,2,0,0,1,.28-.62,1.38,1.38,0,0,1,.49-.47,1.41,1.41,0,0,1,.78-.19h5.47a9,9,0,0,1,1,.06,3,3,0,0,1,.95.24,1.61,1.61,0,0,1,1,1.59,1.78,1.78,0,0,1-.27,1,1.71,1.71,0,0,1-.68.57A3,3,0,0,1,131,32c-.35,0-.69.05-1,.05h-3.49a.48.48,0,0,0-.18.06.43.43,0,0,0-.12.17,1.23,1.23,0,0,0-.06.34Z"/></g></g></g><g id="Groupe_60-3" data-name="Groupe 60-3"><g id="Groupe_59-3" data-name="Groupe 59-3"><path id="Tracé_2432-3" data-name="Tracé 2432-3" class="cls-1" d="M6.45,51.4V29.07L26.7,17.53l19.4,11V51L27,62.84Z"/><path id="Tracé_2433-3" data-name="Tracé 2433-3" class="cls-2" d="M26.74,15.88V9.71L53.67,25,48,27.85Z"/><path id="Tracé_2434-3" data-name="Tracé 2434-3" class="cls-3" d="M48,52.44l5.72,3.4V25L48,27.86Z"/><path id="Tracé_2435-3" data-name="Tracé 2435-3" class="cls-4" d="M27,65.41v5.43l26.65-15-5.72-3.4Z"/><path id="Tracé_2436-3" data-name="Tracé 2436-3" class="cls-1" d="M4.61,52.9.46,55.84,27,70.85V65.42Z"/><path id="Tracé_2437-3" data-name="Tracé 2437-3" class="cls-5" d="M4.61,28.49,0,25.82l.46,30,4.15-3Z"/><path id="Tracé_2438-3" data-name="Tracé 2438-3" class="cls-6" d="M26.74,9.71v6.17L4.61,28.49,0,25.82Z"/><path id="Tracé_2439-3" data-name="Tracé 2439-3" class="cls-6" d="M7,29.84l-2.4-1.35v24.4L7,51.54Z"/><path id="Tracé_2440-3" data-name="Tracé 2440-3" class="cls-2" d="M26.94,62.67,27,65.41,4.61,52.9,7,51.54Z"/><path id="Tracé_2441-3" data-name="Tracé 2441-3" class="cls-7" d="M45.55,51.13l2.4,1.3L27,65.41l-.08-2.74Z"/><path id="Tracé_2442-3" data-name="Tracé 2442-3" class="cls-5" d="M48,27.85l-2.4,1.42V51.13l2.4,1.3Z"/><path id="Tracé_2443-3" data-name="Tracé 2443-3" class="cls-5" d="M26.69,18.62,45.55,29.27,48,27.85l-21.21-12Z"/><path id="Tracé_2444-3" data-name="Tracé 2444-3" class="cls-3" d="M4.61,28.49,26.74,15.88l0,2.74L7,29.84Z"/><path id="Tracé_2445-3" data-name="Tracé 2445-3" class="cls-8" d="M.46,55.84v2.43L27,73.33V70.85Z"/><path id="Tracé_2446-3" data-name="Tracé 2446-3" class="cls-9" d="M53.67,55.84v2.43L27,73.33V70.85Z"/><path id="Tracé_2447-3" data-name="Tracé 2447-3" class="cls-2" d="M15.2,43.05a7.22,7.22,0,0,1-.92-.06,1.9,1.9,0,0,1-.77-.26,1.45,1.45,0,0,1-.56-.59,2.3,2.3,0,0,1-.2-1A2.68,2.68,0,0,1,13,40a1.36,1.36,0,0,1,.54-.6,2.1,2.1,0,0,1,.77-.24c.3,0,.6,0,.9,0h1.65V37.5a7.52,7.52,0,0,1,.05-.82,1.85,1.85,0,0,1,.25-.76,1.45,1.45,0,0,1,.62-.53,2.55,2.55,0,0,1,1.16-.21,2.21,2.21,0,0,1,1.07.21,1.49,1.49,0,0,1,.61.53,1.87,1.87,0,0,1,.27.76,5.66,5.66,0,0,1,.06.82v1.59h1.67a8.27,8.27,0,0,1,.86,0,2.1,2.1,0,0,1,.77.24,1.5,1.5,0,0,1,.57.6A2.41,2.41,0,0,1,25,41.1a2.13,2.13,0,0,1-.21,1,1.59,1.59,0,0,1-.57.58,1.9,1.9,0,0,1-.77.26,6.22,6.22,0,0,1-.86.06H20.9v1.62a6.4,6.4,0,0,1-.06.88,1.66,1.66,0,0,1-.27.74,1.4,1.4,0,0,1-.61.52,2.46,2.46,0,0,1-1.07.2,2.87,2.87,0,0,1-1.16-.2,1.43,1.43,0,0,1-.62-.52,1.76,1.76,0,0,1-.25-.74,8.49,8.49,0,0,1-.05-.88V43.05Z"/></g><path id="Tracé_2448-3" data-name="Tracé 2448-3" class="cls-2" d="M32,34.81v-.22H27.6c-.39,0-.78,0-1.18-.07a3.57,3.57,0,0,1-1.11-.29,2,2,0,0,1-.83-.68,2.07,2.07,0,0,1,.83-3.12,3.57,3.57,0,0,1,1.11-.29c.4,0,.79-.06,1.18-.07h7.47a3.27,3.27,0,0,1,1.2.22,2.6,2.6,0,0,1,.9.55,2.57,2.57,0,0,1,.54.8,2.47,2.47,0,0,1,.17.93,3.08,3.08,0,0,1,0,.53,1.27,1.27,0,0,1-.19.5l-3,4.87a7.11,7.11,0,0,1,1.51.82,5.57,5.57,0,0,1,1.32,1.29,6.61,6.61,0,0,1,.92,1.84,8,8,0,0,1,.34,2.44,10.28,10.28,0,0,1-.34,2.76,7.71,7.71,0,0,1-.92,2.1,6.09,6.09,0,0,1-1.36,1.5,7.26,7.26,0,0,1-1.65,1,8.44,8.44,0,0,1-1.82.54,10.4,10.4,0,0,1-1.84.16,9.59,9.59,0,0,1-3.05-.53,10.51,10.51,0,0,1-1.49-.68A5.28,5.28,0,0,1,25,50.74a4.13,4.13,0,0,1-.88-1.23A3.43,3.43,0,0,1,23.78,48a2.53,2.53,0,0,1,.12-.77,1.67,1.67,0,0,1,.36-.65,1.62,1.62,0,0,1,.61-.45,2,2,0,0,1,.9-.18,2.41,2.41,0,0,1,1.28.37,2.85,2.85,0,0,1,1,1.15,2.45,2.45,0,0,0,.31.41,2.23,2.23,0,0,0,.55.42,4,4,0,0,0,.83.33,3.83,3.83,0,0,0,1.12.14,3.65,3.65,0,0,0,1.6-.3,2.66,2.66,0,0,0,1-.79,2.77,2.77,0,0,0,.51-1.1,5.27,5.27,0,0,0,.14-1.25A3.48,3.48,0,0,0,33.86,44a3.67,3.67,0,0,0-.68-1.07,3,3,0,0,0-1-.71A2.53,2.53,0,0,0,31.1,42a1.84,1.84,0,0,1-1.31-.47,1.68,1.68,0,0,1-.5-1.28,2.22,2.22,0,0,1,.14-.76,4.88,4.88,0,0,1,.43-.93Z"/></g><g id="Groupe_60-2" data-name="Groupe 60-2"><g id="Groupe_59-2" data-name="Groupe 59-2"><path id="Tracé_2432-2" data-name="Tracé 2432-2" class="cls-1" d="M49,55.08V25.58L75.73,10.33l25.6,14.47V54.52L76.07,70.22Z"/><path id="Tracé_2433-2" data-name="Tracé 2433-2" class="cls-2" d="M75.78,8.15V0l35.53,20.19L103.76,24Z"/><path id="Tracé_2434-2" data-name="Tracé 2434-2" class="cls-3" d="M103.76,56.45l7.55,4.5V20.19L103.76,24Z"/><path id="Tracé_2435-2" data-name="Tracé 2435-2" class="cls-4" d="M76.14,73.6v7.18L111.3,61l-7.56-4.5Z"/><path id="Tracé_2436-2" data-name="Tracé 2436-2" class="cls-1" d="M46.58,57.06,41.11,61l35,19.83V73.6Z"/><path id="Tracé_2437-2" data-name="Tracé 2437-2" class="cls-5" d="M46.58,24.82l-6.09-3.53L41.1,61l5.48-3.9Z"/><path id="Tracé_2438-2" data-name="Tracé 2438-2" class="cls-6" d="M75.78,0V8.15L46.58,24.82l-6.09-3.53Z"/><path id="Tracé_2439-2" data-name="Tracé 2439-2" class="cls-6" d="M49.75,26.59l-3.16-1.77V57.06l3.16-1.79Z"/><path id="Tracé_2440-2" data-name="Tracé 2440-2" class="cls-2" d="M76,70l.1,3.62L46.59,57.06l3.16-1.79Z"/><path id="Tracé_2441-2" data-name="Tracé 2441-2" class="cls-7" d="M100.6,54.72l3.16,1.73L76.14,73.6,76,70Z"/><path id="Tracé_2442-2" data-name="Tracé 2442-2" class="cls-5" d="M103.76,24l-3.16,1.87V54.72l3.16,1.73Z"/><path id="Tracé_2443-2" data-name="Tracé 2443-2" class="cls-5" d="M75.71,11.77,100.6,25.84,103.76,24l-28-15.82Z"/><path id="Tracé_2444-2" data-name="Tracé 2444-2" class="cls-3" d="M46.59,24.82,75.79,8.15l-.07,3.62-26,14.83Z"/><path id="Tracé_2445-2" data-name="Tracé 2445-2" class="cls-8" d="M41.11,61v3.21l35,19.9V80.78Z"/><path id="Tracé_2446-2" data-name="Tracé 2446-2" class="cls-9" d="M111.31,61v3.21L76.14,84.06V80.78Z"/><path id="Tracé_2447-2" data-name="Tracé 2447-2" class="cls-2" d="M60.56,44.05A8.11,8.11,0,0,1,59.35,44a2.61,2.61,0,0,1-1-.34,1.84,1.84,0,0,1-.72-.77,2.86,2.86,0,0,1-.26-1.38A3.27,3.27,0,0,1,57.6,40a1.81,1.81,0,0,1,.71-.79,2.44,2.44,0,0,1,1-.32,9.66,9.66,0,0,1,1.2-.07h2.17v-2.1a8,8,0,0,1,.07-1.09,2.57,2.57,0,0,1,.33-1,2,2,0,0,1,.82-.71,3.45,3.45,0,0,1,1.52-.28,3.14,3.14,0,0,1,1.42.28,2.13,2.13,0,0,1,.81.71,2.71,2.71,0,0,1,.35,1,8,8,0,0,1,.08,1.09v2.1H70.3a8.68,8.68,0,0,1,1.13.07,2.53,2.53,0,0,1,1,.32,1.94,1.94,0,0,1,.74.79,3.27,3.27,0,0,1,.29,1.48,2.86,2.86,0,0,1-.29,1.38,2,2,0,0,1-.74.77,2.68,2.68,0,0,1-1,.34,8.71,8.71,0,0,1-1.13.08H68.09v2.14A8.92,8.92,0,0,1,68,47.35a2.56,2.56,0,0,1-.35,1,1.94,1.94,0,0,1-.81.69,3.28,3.28,0,0,1-1.42.25A3.58,3.58,0,0,1,63.91,49a1.84,1.84,0,0,1-.82-.69,2.28,2.28,0,0,1-.33-1,9,9,0,0,1-.07-1.16V44.05Z"/></g><g id="_7" data-name=" 7" class="cls-10"><g class="cls-10"><path class="cls-2" d="M81.89,31.19V31H75.6c-.47,0-.95,0-1.45-.08a4.38,4.38,0,0,1-1.38-.36,2.59,2.59,0,0,1-1-.84,2.47,2.47,0,0,1-.42-1.52,2.38,2.38,0,0,1,.42-1.49,2.59,2.59,0,0,1,1-.84,5,5,0,0,1,1.38-.36c.5-.05,1-.08,1.45-.08H86.33a3.8,3.8,0,0,1,1.43.26,3.32,3.32,0,0,1,1.06.7,2.63,2.63,0,0,1,.65,1,3,3,0,0,1,.22,1.14,3.6,3.6,0,0,1-.06.66,2.09,2.09,0,0,1-.22.62L83.65,40.28c-.34.6-.6,1.12-.79,1.55a7.05,7.05,0,0,0-.44,1.23,6.83,6.83,0,0,0-.2,1.2c0,.42,0,.9,0,1.46v3c0,.59,0,1.16,0,1.72a4.35,4.35,0,0,1-.35,1.5,2.45,2.45,0,0,1-1,1.06,3.51,3.51,0,0,1-1.85.4,3.35,3.35,0,0,1-1.81-.4A2.36,2.36,0,0,1,76.23,52a4.35,4.35,0,0,1-.34-1.5c0-.56,0-1.13,0-1.72v-3c0-.94,0-1.72.07-2.32a8.47,8.47,0,0,1,.27-1.59,7,7,0,0,1,.54-1.35c.23-.44.52-1,.88-1.62Z"/></g></g></g></g></g></g></svg>