<svg xmlns="http://www.w3.org/2000/svg" viewBox="0 0 1200.01 1213.9">
  <defs>
    <style>
      .orange-light{fill:#f39200;}
      .rose{fill:#d60b51;}
      .orange-red{fill:#ec6608;}
      .diamond{fill:#07275a;}
      .mask{fill:none;stroke:#fff;stroke-width:150px;}
      .bump{
        transform-origin: 50% 50%;
      }
    </style>
  </defs>
    <g id="way">
      <path mask="url(#mask-reverse)" class="orange-light" d="M598.51,34.78A575.72,575.72,0,0,0,377.14,78.86l0,0-.29.17A578.52,578.52,0,0,0,247,154l-.57.44,89.16,116C232.1,349.68,165.34,474.45,165.34,614.87a437.89,437.89,0,0,0,3.59,55l95.58-12.57a339.65,339.65,0,0,1-2.75-42.44c0-109.29,52-206.4,132.55-268.07a336.74,336.74,0,0,1,76-43.82L414.1,167.81A480.44,480.44,0,0,1,598.51,131.2c200.9,0,373,122.92,445.46,297.63l89-36.92.07,0C1046.12,182.27,839.57,34.78,598.51,34.78Z"/>
      <path mask="url(#mask-reverse)" class="rose" d="M98.8,901.27A575.77,575.77,0,0,0,247.65,1071l0,0,.28.17a578.92,578.92,0,0,0,129.88,75l.67.27,55.84-135.2c120.4,49.94,261.84,45.38,383.45-24.83a438.26,438.26,0,0,0,45.84-30.62l-58.67-76.49a341.63,341.63,0,0,1-35.38,23.61C674.89,957.51,564.79,961,471.1,922.1a337.38,337.38,0,0,1-75.92-43.86l-89,116.22a480.38,480.38,0,0,1-123.9-141.4c-100.45-174-80.07-384.51,35-534.59l-76.48-58.63-.05,0C2.71,439.89-21.73,692.51,98.8,901.27Z"/>
      <path mask="url(#mask-reverse)" class="orange-red" d="M1093.79,897.59a575.64,575.64,0,0,0,72.51-213.75h0v-.34a579,579,0,0,0,0-150c0-.24-.07-.48-.11-.71l-145,19.23c-17-129.24-91.62-249.45-213.23-319.66A438.1,438.1,0,0,0,758.57,208l-36.9,89.06a340.36,340.36,0,0,1,38.13,18.83c94.65,54.65,152.74,148.24,165.87,248.84a336.49,336.49,0,0,1,0,87.69l145.14,18.94a480.7,480.7,0,0,1-60.5,178c-100.45,174-293,261.6-480.49,237l-12.53,95.55v.06C742.26,1211.49,973.26,1106.36,1093.79,897.59Z"/>
</g>
  <g id="diamonds" class="bump" transform="scale(0)">
    <animateTransform attributeName="transform" type='scale' values="0.0;0.0;0.0;1.2;0.8;1.1;0.9;1.0" begin="3s" dur="1s" fill="freeze"/>
    <polygon class="diamond" points="781.57 532.58 746.18 522.36 723.23 515.74 716.61 492.79 706.11 456.31 725.4 456.31 781.57 532.58"/>
    <polygon class="diamond" points="800.35 558.03 699.37 701.37 594.57 850.99 489.65 701.37 388.67 558.03 463.56 456.31 703.14 456.31 692.63 492.79 686.01 515.74 663.07 522.36 621.51 534.35 663.07 546.39 686.01 553.01 692.63 575.96 704.62 617.51 716.61 575.96 723.23 553.01 746.18 546.39 783.74 535.49 800.35 558.03"/>
    <polygon class="diamond" points="706.11 456.31 703.14 456.31 704.62 451.23 706.11 456.31"/>
    <polygon class="diamond" points="787.74 534.35 783.74 535.49 781.57 532.58 787.74 534.35"/>
    <polygon class="diamond" points="787.74 432.12 792.34 448.04 794.88 456.83 803.67 459.37 819.59 463.97 803.67 468.56 794.88 471.1 792.34 479.89 787.74 495.81 783.15 479.89 780.61 471.1 771.82 468.56 755.9 463.97 771.82 459.37 780.61 456.83 783.15 448.04 787.74 432.12 787.74 432.12"/>
  </g>
  <mask id="mask">
    <path class="mask" stroke-dasharray="1525" stroke-dashoffset="1525" d="M1087.13,414.92C1005,216.72,809.6,75,595.12,75a524.59,524.59,0,0,0-201.88,40.12l-.59.25c-27.17,11.3-44.63,29.8-69.41,45.32l79.09,109.12-39.74,30.46C266.85,373.66,212,484.76,212,605.08c0,15.81,4.71,45.41,6.86,62.39">
      <animate
        attributeName="stroke-dashoffset" from="1525" to="0" begin="0.5s" dur="1.5s" fill="freeze"
        />
    </path>
    <path class="mask" stroke-dasharray="1525" stroke-dashoffset="1525" d="M190.47,280.22C59.92,450.49,34.86,690.53,142.1,876.27A524.59,524.59,0,0,0,277.78,1031l.51.39c23.38,17.88,48.12,23.76,74,37.45l55-123.05L453.46,965c111.42,46.22,235.08,38.22,339.29-22,13.68-7.9,37-26.77,50.6-37.13">
      <animate
        attributeName="stroke-dashoffset" from="1525" to="0" begin="1.3s" dur="1.5s" fill="freeze"
        />
    </path>
    <path class="mask" stroke-dasharray="1525" stroke-dashoffset="1525" d="M517.27,1134.22c212.73,27.92,433.14-70.4,540.38-256.14a524.36,524.36,0,0,0,66.19-194.89l.09-.64c3.79-29.18-3.49-53.55-4.55-82.77L985.33,613.71l-6.51-49.65c-15.68-119.6-84.44-222.69-188.65-282.86-13.69-7.9-41.67-18.62-57.46-25.25">
      <animate
        attributeName="stroke-dashoffset" from="1525" to="0" begin="2.1s" dur="1.5s" fill="freeze"
        />
    </path>
  </mask>
  <mask id="mask-reverse">
    <path class="mask" stroke-dasharray="1525" stroke-dashoffset="1525" d="M843.35,905.93c-13.63,10.36-36.92,29.23-50.6,37.13-104.21,60.17-227.87,68.17-339.29,22l-46.25-19.18-55,123.05c-25.84-13.69-50.58-19.57-74-37.45l-.51-.39A524.59,524.59,0,0,1,142.1,876.27c-107.24-185.74-82.18-425.78,48.37-596">
      <animate
        attributeName="stroke-dashoffset" from="1525" to="0" begin="0.5s" dur="1.5s" fill="freeze"
        />
    </path>
    <path class="mask" stroke-dasharray="1525" stroke-dashoffset="1525" d="M732.71,256c15.79,6.63,43.77,17.35,57.46,25.25,104.21,60.17,173,163.26,188.65,282.86l6.51,49.65,134.05-13.93c1.06,29.22,8.34,53.59,4.55,82.77l-.09.64a524.36,524.36,0,0,1-66.19,194.89C950.41,1063.82,730,1162.14,517.27,1134.22">
      <animate
        attributeName="stroke-dashoffset" from="1525" to="0" begin="1.3s" dur="1.5s" fill="freeze"
        />
    </path>
    <path class="mask" stroke-dasharray="1525" stroke-dashoffset="1525" d="M218.81,667.47c-2.15-17-6.86-46.58-6.86-62.39,0-120.32,54.9-231.42,150.64-304.81l39.74-30.46L323.24,160.69c24.78-15.52,42.24-34,69.41-45.32l.59-.25A524.59,524.59,0,0,1,595.12,75c214.48,0,409.83,141.72,492,339.92">
      <animate
        attributeName="stroke-dashoffset" from="1525" to="0" begin="2.1s" dur="1.5s" fill="freeze"
        />
    </path>

  </mask>
</svg>
