<svg xmlns="http://www.w3.org/2000/svg" viewBox="0 0 15.91 15.92"><defs><style>.cls-1{fill:#f8d667;}.cls-2{fill:#f5c344;}.cls-3{fill:#f6cb50;}.cls-4{fill:#f9e6b2;}</style></defs><title>prix</title><g id="Calque_2" data-name="Calque 2"><g id="Calque_1-2" data-name="Calque 1"><circle id="Ellipse_123" data-name="Ellipse 123" class="cls-1" cx="7.66" cy="7.66" r="7.54"/><path id="Tracé_2544" data-name="Tracé 2544" class="cls-2" d="M2.33,2.33a8,8,0,1,1,9,12.84l-.46.2a8,8,0,0,1-8.52-13Zm0,0A7.12,7.12,0,1,0,7.66.24,7.11,7.11,0,0,0,2.33,2.33Z"/><circle id="Ellipse_124" data-name="Ellipse 124" class="cls-3" cx="7.66" cy="7.43" r="5.03"/><path id="Tracé_2545" data-name="Tracé 2545" class="cls-2" d="M11.21,11a5.19,5.19,0,1,1,.13-7.24A5.2,5.2,0,0,1,11.21,11Zm0,0a5,5,0,0,0,1.08-1.64,4.87,4.87,0,1,0-2.72,2.72A5,5,0,0,0,11.21,11Z"/><path id="Tracé_2546" data-name="Tracé 2546" class="cls-4" d="M7.76,5a1.89,1.89,0,0,1,.67.12,1.66,1.66,0,0,1,.33.15A1.18,1.18,0,0,1,9,5.44a1.07,1.07,0,0,1,.19.28.81.81,0,0,1,.08.34.57.57,0,0,1,0,.18.39.39,0,0,1-.08.14.31.31,0,0,1-.13.1.38.38,0,0,1-.2,0,.57.57,0,0,1-.29-.08.78.78,0,0,1-.22-.26A.44.44,0,0,0,8.17,6L8,5.91a1,1,0,0,0-.25,0A.84.84,0,0,0,7.39,6a.62.62,0,0,0-.22.17.8.8,0,0,0-.11.25,1.33,1.33,0,0,0,0,.28v.13H8.1a.25.25,0,0,1,.11,0,.24.24,0,0,1,.08.09.45.45,0,0,1,0,.16.33.33,0,0,1,0,.15.24.24,0,0,1-.08.09.27.27,0,0,1-.11,0H7v.35H8.1a.25.25,0,0,1,.11,0,.24.24,0,0,1,.08.09.51.51,0,0,1,0,.17.37.37,0,0,1,0,.15.24.24,0,0,1-.08.09l-.11,0H7v.11a1.27,1.27,0,0,0,0,.28A.76.76,0,0,0,7.17,9a.62.62,0,0,0,.22.17.71.71,0,0,0,.35.07,1,1,0,0,0,.25,0,1,1,0,0,0,.18-.07.5.5,0,0,0,.19-.19.63.63,0,0,1,.22-.26.5.5,0,0,1,.29-.09.51.51,0,0,1,.2,0,.41.41,0,0,1,.13.1.36.36,0,0,1,.08.15.47.47,0,0,1,0,.17.85.85,0,0,1-.08.35A1.26,1.26,0,0,1,9,9.67a1.46,1.46,0,0,1-.28.21,1.66,1.66,0,0,1-.33.15,2.15,2.15,0,0,1-.67.13,2.71,2.71,0,0,1-.4,0A1.85,1.85,0,0,1,7,10a1.76,1.76,0,0,1-.37-.23,1.22,1.22,0,0,1-.3-.34A1.8,1.8,0,0,1,6.09,9,2.26,2.26,0,0,1,6,8.33H5.41l-.1,0a.18.18,0,0,1-.08-.09A.4.4,0,0,1,5.2,8a.47.47,0,0,1,0-.17.25.25,0,0,1,.18-.13H6V7.38H5.54l-.13,0a.21.21,0,0,1-.1,0,.18.18,0,0,1-.08-.09.4.4,0,0,1,0-.15.51.51,0,0,1,0-.17.17.17,0,0,1,.08-.09.19.19,0,0,1,.1,0H6a2.22,2.22,0,0,1,.07-.63,1.68,1.68,0,0,1,.2-.48,1.43,1.43,0,0,1,.3-.35A1.51,1.51,0,0,1,7,5.1,1.69,1.69,0,0,1,7.36,5,2.69,2.69,0,0,1,7.76,5Z"/></g></g></svg>