<svg xmlns="http://www.w3.org/2000/svg" viewBox="0 0 13.72 12.81"><defs><style>.cls-1{fill:#ffe1bd;}.cls-2{fill:#e6b796;}</style></defs><title>difficulté</title><g id="Calque_2" data-name="Calque 2"><g id="Calque_1-2" data-name="Calque 1"><path id="Tracé_2717" data-name="Tracé 2717" class="cls-1" d="M0,8.74c-.21-1.56.75-4.06,1.2-7.43C1.31.71,4.44.07,5.89.07c.38,0,.7,1.71.6,2.3s-.67.32-.67.32a.63.63,0,0,1-.8.36H5c-.18.49-.73.27-.73.27a.58.58,0,0,1-.74.23c-.46,2,.39,1.8,1,4.81,0,0,.18,0,.66-1,2-4,8.88-2.7,8.47,1.54-.09.95.9,2.5-2.81,3.65-2.95.93-6.57-.84-6.57-.84-1.24.38-3.63.36-3.7-.56A23.72,23.72,0,0,0,0,8.74Z"/><path id="Tracé_2718" data-name="Tracé 2718" class="cls-2" d="M13.67,8.89a3.15,3.15,0,0,0-.75-2.43,3.18,3.18,0,0,1,.42,2c-.1,1,.9,2.49-2.81,3.65C7.58,13,4,11.25,4,11.25a5.29,5.29,0,0,1-3.36-.08c.09.89,2.47.9,3.7.53,0,0,3.62,1.76,6.57.84C14.57,11.38,13.57,9.84,13.67,8.89Z"/><path id="Tracé_2719" data-name="Tracé 2719" class="cls-2" d="M3.26,3.52c-.58,2.33.36,2.23,1,5.2l.33-.34c-.46-3-1.24-2.61-1.05-4.8A1.1,1.1,0,0,1,3.26,3.52Z"/><path id="Tracé_2720" data-name="Tracé 2720" class="cls-2" d="M6.23,10.17c1.9.72,4.76,0,6.39-.76C11.89,11.11,8.11,12,6.23,10.17Z"/><path id="Tracé_2721" data-name="Tracé 2721" class="cls-2" d="M5.28.72A.44.44,0,0,0,4.69.57C4.71.3,5.39.1,5.28.72Z"/><path id="Tracé_2722" data-name="Tracé 2722" class="cls-2" d="M6.67,1.71A2.84,2.84,0,0,0,6.13.31a3.57,3.57,0,0,1,.25,1.33c0,.2,0,.94-.31.84s-.23-.25-.3-.44a3.13,3.13,0,0,1-.25-1,3,3,0,0,0,.06,1c0,.19.16.7-.09.77a.59.59,0,0,1-.41-.12S5,2.52,5,2.47a3.31,3.31,0,0,1-.25-1,2.69,2.69,0,0,0,0,1c0,.19.12.61-.11.71s-.31-.19-.36-.35a3.39,3.39,0,0,1-.23-.95,4.3,4.3,0,0,0,0,1.24c0,.2-.43.37-.6.25a1.39,1.39,0,0,1-.33-.94c.08.1.19.22.33.21a2.13,2.13,0,0,1-.25-.5C3.16,2,3,1.66,2.84,1.65A2,2,0,0,1,3,2.12c-.07.13-.14.25-.22.37s-.27.42-.42.32-.23-.39-.28-.56c0,.22,0,.57.22.71s.45-.08.59-.22c.05.47.25,1.07.83,1a1.61,1.61,0,0,0,.36-.1c.09-.05.2-.15.29-.13A.64.64,0,0,0,5,3.39c.08-.09.06-.15.18-.12a.65.65,0,0,0,.39,0,.62.62,0,0,0,.28-.17A.86.86,0,0,0,6,2.94c0-.09.08,0,.17,0,.6,0,.57-.76.52-1.19S6.69,1.84,6.67,1.71Z"/><path id="Tracé_2723" data-name="Tracé 2723" class="cls-2" d="M6.12.41a.45.45,0,0,0-.6-.15C5.55,0,6.22-.21,6.12.41Z"/><path id="Tracé_2724" data-name="Tracé 2724" class="cls-2" d="M4.61,1.07A.43.43,0,0,0,4,.92C4,.65,4.72.45,4.61,1.07Z"/><path id="Tracé_2725" data-name="Tracé 2725" class="cls-2" d="M3.84,1.43a.43.43,0,0,0-.59-.15C3.27,1,4,.81,3.84,1.43Z"/></g></g></svg>