<svg xmlns="http://www.w3.org/2000/svg" viewBox="0 0 27.71 24.47"><defs><style>.cls-1{fill:#f4b53f;}.cls-2{fill:#fcecba;}.cls-3{fill:#f8d667;}.cls-4{fill:#f1a43a;}.cls-5{fill:#f6cb50;}.cls-6{fill:#fae08f;}.cls-7{fill:#f5c344;}.cls-8{fill:#f09436;}.cls-9{fill:#ed772f;}.cls-10{isolation:isolate;}.cls-11{fill:#fcf9f0;}.cls-12{fill:#0f9169;}.cls-13{fill:#097c56;}</style></defs><title>level_5_petit</title><g id="Calque_2" data-name="Calque 2"><g id="Calque_1-2" data-name="Calque 1"><g id="Groupe_844" data-name="Groupe 844"><g id="Groupe_60" data-name="Groupe 60"><g id="Groupe_59" data-name="Groupe 59"><path id="Tracé_2432" data-name="Tracé 2432" class="cls-1" d="M6.12,15.7V7.29l7.61-4.35L21,7.07v8.47L13.83,20Z"/><path id="Tracé_2433" data-name="Tracé 2433" class="cls-2" d="M13.75,2.32V0L23.88,5.76,21.73,6.83Z"/><path id="Tracé_2434" data-name="Tracé 2434" class="cls-3" d="M21.72,16.09l2.16,1.28V5.76L21.72,6.83Z"/><path id="Tracé_2435" data-name="Tracé 2435" class="cls-4" d="M13.85,21v2l10-5.65-2.15-1.28Z"/><path id="Tracé_2436" data-name="Tracé 2436" class="cls-1" d="M5.43,16.26,3.87,17.37l10,5.66V21Z"/><path id="Tracé_2437" data-name="Tracé 2437" class="cls-5" d="M5.43,7.08l-1.73-1,.17,11.3,1.56-1.11Z"/><path id="Tracé_2438" data-name="Tracé 2438" class="cls-6" d="M13.75,0V2.32L5.42,7.08l-1.73-1Z"/><path id="Tracé_2439" data-name="Tracé 2439" class="cls-6" d="M6.33,7.58l-.9-.51v9.19l.9-.51Z"/><path id="Tracé_2440" data-name="Tracé 2440" class="cls-2" d="M13.82,20l0,1L5.43,16.27l.9-.51Z"/><path id="Tracé_2441" data-name="Tracé 2441" class="cls-7" d="M20.82,15.6l.9.49L13.85,21l0-1Z"/><path id="Tracé_2442" data-name="Tracé 2442" class="cls-5" d="M21.72,6.83l-.9.54V15.6l.9.49Z"/><path id="Tracé_2443" data-name="Tracé 2443" class="cls-5" d="M13.73,3.36l7.09,4,.9-.53-8-4.51Z"/><path id="Tracé_2444" data-name="Tracé 2444" class="cls-3" d="M5.43,7.07l8.32-4.75,0,1L6.33,7.58Z"/><path id="Tracé_2445" data-name="Tracé 2445" class="cls-8" d="M3.87,17.37v.92l10,5.67V23Z"/><path id="Tracé_2446" data-name="Tracé 2446" class="cls-9" d="M23.88,17.37v.92L13.85,24V23Z"/></g><g id="_7" data-name=" 7" class="cls-10"><g class="cls-10"><path class="cls-11" d="M12.79,10.65a2.2,2.2,0,0,1,.6-.14,4.4,4.4,0,0,1,.58,0,2.78,2.78,0,0,1,.54.06,2.29,2.29,0,0,1,.6.18,2.78,2.78,0,0,1,.59.35,2.34,2.34,0,0,1,.51.53,2.68,2.68,0,0,1,.36.76,3.37,3.37,0,0,1,.13,1,4,4,0,0,1-.14,1.14,3.07,3.07,0,0,1-.37.88,2.49,2.49,0,0,1-.54.62,3,3,0,0,1-.67.4,3,3,0,0,1-.73.23,4.59,4.59,0,0,1-.73.06,3.56,3.56,0,0,1-.84-.1,3.48,3.48,0,0,1-.83-.32,2.64,2.64,0,0,1-.7-.53,1.61,1.61,0,0,1-.4-.75,1.24,1.24,0,0,1,0-.33,1.12,1.12,0,0,1,0-.32.72.72,0,0,1,.15-.27.63.63,0,0,1,.24-.18.8.8,0,0,1,.36-.07A1,1,0,0,1,12,14a1.08,1.08,0,0,1,.4.48,1.29,1.29,0,0,0,.13.17.8.8,0,0,0,.22.17,1.72,1.72,0,0,0,.33.14,1.53,1.53,0,0,0,.45.06,1.45,1.45,0,0,0,.64-.13.94.94,0,0,0,.4-.33,1.17,1.17,0,0,0,.21-.45,2.31,2.31,0,0,0,.06-.52,1.26,1.26,0,0,0-.12-.57,1.07,1.07,0,0,0-.3-.39,1.26,1.26,0,0,0-.44-.24,1.62,1.62,0,0,0-.49-.08,1.65,1.65,0,0,0-.43.06l-.42.12-.42.13a1.74,1.74,0,0,1-.45.06,1.1,1.1,0,0,1-.31,0,.66.66,0,0,1-.27-.12.68.68,0,0,1-.2-.24.86.86,0,0,1-.08-.38l.39-3.7a1.88,1.88,0,0,1,.06-.31,1.2,1.2,0,0,1,.13-.31.76.76,0,0,1,.24-.23.78.78,0,0,1,.39-.09h2.69a4.36,4.36,0,0,1,.51,0,1.16,1.16,0,0,1,.46.12.77.77,0,0,1,.34.28.9.9,0,0,1,.13.5,1,1,0,0,1-.13.51.84.84,0,0,1-.34.28,1.64,1.64,0,0,1-.46.12l-.51,0H13.1l-.09,0L13,9.19s0,.1,0,.17Z"/></g></g></g><g id="Groupe_842" data-name="Groupe 842"><path id="Tracé_3647" data-name="Tracé 3647" class="cls-12" d="M14.34,23.67s2.45-.17,1.39-4.32C15.73,19.35,12.27,21.76,14.34,23.67Z"/><path id="Tracé_3648" data-name="Tracé 3648" class="cls-13" d="M19.36,24.2S17,20.74,15,22.81c0,0,.17,2.45,4.32,1.39"/><path id="Tracé_3649" data-name="Tracé 3649" class="cls-12" d="M17.34,22.75s2.36-.69.44-4.52C17.78,18.23,14.91,21.32,17.34,22.75Z"/><path id="Tracé_3650" data-name="Tracé 3650" class="cls-13" d="M22.35,22.2s-3.09-2.87-4.51-.45c0,0,.68,2.37,4.51.45"/><path id="Tracé_3651" data-name="Tracé 3651" class="cls-12" d="M20,21.23s2.14-1.22-.63-4.49C19.37,16.74,17.31,20.42,20,21.23Z"/><path id="Tracé_3652" data-name="Tracé 3652" class="cls-13" d="M24.75,19.52s-3.68-2.07-4.49.63c0,0,1.23,2.14,4.49-.63"/><path id="Tracé_3653" data-name="Tracé 3653" class="cls-12" d="M22.17,19s1.75-1.73-1.77-4.17C20.4,14.84,19.36,18.93,22.17,19Z"/><path id="Tracé_3654" data-name="Tracé 3654" class="cls-12" d="M24.14,14.15s2.45-.23,1.28-4.35C25.42,9.8,22,12.3,24.14,14.15Z"/><path id="Tracé_3655" data-name="Tracé 3655" class="cls-13" d="M26.32,16.13s-4.09-1-4.18,1.77c0,0,1.73,1.75,4.18-1.77"/><path id="Tracé_3656" data-name="Tracé 3656" class="cls-12" d="M23.15,16.39s2-1.42-1.06-4.41C22.09,12,20.39,15.83,23.15,16.39Z"/><path id="Tracé_3657" data-name="Tracé 3657" class="cls-13" d="M27.71,14.23s-3.85-1.71-4.41,1c0,0,1.42,2,4.41-1"/></g><g id="Groupe_843" data-name="Groupe 843"><path id="Tracé_3658" data-name="Tracé 3658" class="cls-12" d="M13.38,23.67s-2.46-.16-1.4-4.31C12,19.36,15.45,21.77,13.38,23.67Z"/><path id="Tracé_3659" data-name="Tracé 3659" class="cls-13" d="M8.36,24.21s2.41-3.47,4.31-1.4c0,0-.16,2.46-4.31,1.4"/><path id="Tracé_3660" data-name="Tracé 3660" class="cls-12" d="M10.38,22.75S8,22.06,9.93,18.23C9.93,18.23,12.81,21.33,10.38,22.75Z"/><path id="Tracé_3661" data-name="Tracé 3661" class="cls-13" d="M5.36,22.2s3.09-2.87,4.51-.44c0,0-.68,2.36-4.51.44"/><path id="Tracé_3662" data-name="Tracé 3662" class="cls-12" d="M7.71,21.24S5.57,20,8.34,16.75C8.34,16.75,10.4,20.43,7.71,21.24Z"/><path id="Tracé_3663" data-name="Tracé 3663" class="cls-13" d="M3,19.52s3.68-2.06,4.49.63c0,0-1.22,2.14-4.49-.63"/><path id="Tracé_3664" data-name="Tracé 3664" class="cls-12" d="M5.54,19S3.8,17.29,7.31,14.84C7.31,14.84,8.35,18.93,5.54,19Z"/><path id="Tracé_3665" data-name="Tracé 3665" class="cls-12" d="M3.57,14.16S1.12,13.93,2.3,9.8C2.3,9.8,5.69,12.31,3.57,14.16Z"/><path id="Tracé_3666" data-name="Tracé 3666" class="cls-13" d="M1.4,16.14s4.09-1.05,4.17,1.77c0,0-1.73,1.74-4.17-1.77"/><path id="Tracé_3667" data-name="Tracé 3667" class="cls-12" d="M4.57,16.39s-2-1.42,1-4.41C5.62,12,7.33,15.84,4.57,16.39Z"/><path id="Tracé_3668" data-name="Tracé 3668" class="cls-13" d="M0,14.23s3.86-1.7,4.41,1.06c0,0-1.42,2-4.41-1.06"/></g></g></g></g></svg>