<svg xmlns="http://www.w3.org/2000/svg" viewBox="0 0 15.94 17.65"><defs><style>.cls-1{fill:#2d307e;}.cls-2{fill:#242a6d;}.cls-3{fill:#192056;}.cls-4{fill:#ae2c2b;}.cls-5{fill:#931c1c;}.cls-6{fill:#821616;}.cls-7{fill:#dadada;}.cls-8{fill:#bfbfbf;}.cls-9{fill:#b2b2b2;}</style></defs><title>classement_petit</title><g id="Calque_2" data-name="Calque 2"><g id="Calque_1-2" data-name="Calque 1"><path id="Tracé_3738" data-name="Tracé 3738" class="cls-1" d="M8,15,0,2.71,2.64.35,8,8.38Z"/><path id="Tracé_3739" data-name="Tracé 3739" class="cls-2" d="M2.64.35l0-.35L6,5v.39Z"/><path id="Tracé_3740" data-name="Tracé 3740" class="cls-3" d="M0,2.71V2.42L2.67,0l0,.35Z"/><path id="Tracé_3741" data-name="Tracé 3741" class="cls-4" d="M8,15l8-12.25L13.29.35,8,8.38Z"/><path id="Tracé_3742" data-name="Tracé 3742" class="cls-5" d="M13.29.35l0-.35L10,5v.39Z"/><path id="Tracé_3743" data-name="Tracé 3743" class="cls-6" d="M15.94,2.71V2.42L13.26,0l0,.35Z"/><circle id="Ellipse_341" data-name="Ellipse 341" class="cls-7" cx="7.78" cy="10.74" r="6.3"/><circle id="Ellipse_342" data-name="Ellipse 342" class="cls-8" cx="7.78" cy="10.55" r="4.21"/><g id="Groupe_868" data-name="Groupe 868"><path id="Tracé_3744" data-name="Tracé 3744" class="cls-9" d="M14.05,8.15A6.67,6.67,0,0,0,5.16,5a6.75,6.75,0,0,0-1.84,1.3,5.94,5.94,0,1,1-1.75,4.45A6,6,0,0,1,3.32,6.29,6.66,6.66,0,1,0,14.23,8.56l-.18-.41Z"/><path id="Tracé_3745" data-name="Tracé 3745" class="cls-9" d="M7.78,14.8a4.31,4.31,0,0,0,3-1.27,4.14,4.14,0,0,1-1.36.9,4.07,4.07,0,1,1,2.27-2.27,4.46,4.46,0,0,1-.9,1.37A4.35,4.35,0,0,0,6.07,6.42,4.34,4.34,0,0,0,7.78,14.8Z"/></g></g></g></svg>