<svg xmlns="http://www.w3.org/2000/svg" viewBox="0 0 11.87 16"><defs><style>.cls-1{fill:#c11a1a;}.cls-2{fill:#840404;}</style></defs><title>localisation</title><g id="Calque_2" data-name="Calque 2"><g id="Calque_1-2" data-name="Calque 1"><path id="Tracé_2693" data-name="Tracé 2693" class="cls-1" d="M5.94,0A5.74,5.74,0,0,0,.2,5.73h0c0,3.16,5.74,9.5,5.74,9.5s5.73-6.34,5.73-9.5A5.73,5.73,0,0,0,5.94,0Zm0,7A1.75,1.75,0,1,1,7.68,5.29,1.74,1.74,0,0,1,5.94,7Z"/><g id="Groupe_315" data-name="Groupe 315"><path id="Tracé_2694" data-name="Tracé 2694" class="cls-2" d="M5.94,0A5.63,5.63,0,0,0,1.56,2.14a5.52,5.52,0,0,0-1,2.24A5,5,0,0,0,.41,5.59,3.91,3.91,0,0,0,.63,6.77,11.27,11.27,0,0,0,1.72,9c.44.71.92,1.38,1.42,2s1,1.33,1.55,2,1.07,1.29,1.62,1.9H5.56c1.1-1.23,2.17-2.54,3.17-3.87a16.76,16.76,0,0,0,2.51-4.26,3.85,3.85,0,0,0,.22-1.17,4.92,4.92,0,0,0-.12-1.21,5.46,5.46,0,0,0-1-2.24A5.64,5.64,0,0,0,8.38.57,5.74,5.74,0,0,0,5.94,0Zm0,0a6,6,0,0,1,4.48,2.05A6,6,0,0,1,11.65,4.3a5.62,5.62,0,0,1,.22,1.29,4.22,4.22,0,0,1-.15,1.32,11.07,11.07,0,0,1-1,2.4,21.4,21.4,0,0,1-1.31,2.21,38.34,38.34,0,0,1-3.13,4.05L5.94,16l-.38-.43a38.34,38.34,0,0,1-3.13-4.05A25.68,25.68,0,0,1,1.12,9.31a11.6,11.6,0,0,1-1-2.4A4.22,4.22,0,0,1,0,5.59,5.63,5.63,0,0,1,.23,4.3,5.94,5.94,0,0,1,5.94,0Z"/><path id="Tracé_2695" data-name="Tracé 2695" class="cls-2" d="M5.94,7a2,2,0,0,1-2-1.74A2,2,0,0,1,4.4,3.75a2,2,0,0,1,2.86-.21,1.45,1.45,0,0,1,.22.21A2,2,0,0,1,5.94,7Zm0,0a1.52,1.52,0,0,0,1.18-.56,1.44,1.44,0,0,0,.3-1.18A1.51,1.51,0,0,0,5.65,4.08,1.49,1.49,0,0,0,4.44,5.29a1.47,1.47,0,0,0,.3,1.18A1.56,1.56,0,0,0,5.94,7Z"/></g></g></g></svg>